<?xml version="1.0" encoding="iso-8859-1"?>
<!-- Generator: Adobe Illustrator 16.0.0, SVG Export Plug-In . SVG Version: 6.00 Build 0)  -->
<!DOCTYPE svg PUBLIC "-//W3C//DTD SVG 1.1//EN" "http://www.w3.org/Graphics/SVG/1.1/DTD/svg11.dtd">
<svg version="1.1" id="Layer_1" xmlns="http://www.w3.org/2000/svg" xmlns:xlink="http://www.w3.org/1999/xlink" x="0px" y="0px"
	 width="196.561px" height="203.762px" viewBox="0 0 196.561 203.762" style="enable-background:new 0 0 196.561 203.762;"
	 xml:space="preserve">
<path style="fill-rule:evenodd;clip-rule:evenodd;fill:#FFFFFF;" d="M168.873,64.106c-11.245-19.886-31.094-34.265-54.493-38.083
	V177.74c23.305-3.803,43.089-18.083,54.357-37.847h27.729c-15.068,37.439-51.73,63.869-94.567,63.869
	c-42.837,0-79.499-26.43-94.567-63.869h27.736c11.268,19.763,31.051,34.043,54.355,37.847V89.059H26.088
	c-0.701,4.17-1.066,8.453-1.066,12.822c0,4.452,0.379,8.815,1.106,13.06H0.83C0.283,110.664,0,106.305,0,101.88
	C0,45.613,45.622,0,101.898,0c42.928,0,79.654,26.542,94.663,64.106H168.873z M89.422,26.023
	c-23.398,3.818-43.246,18.198-54.491,38.083h54.491V26.023z"/>
</svg>
